# xmcd CD database file
#
# Track frame offsets:
#	150
#	9518
#	28865
#	42221
#	57807
#	84986
#	102240
#	113814
#	146948
#	166578
#	183104
#	198895
#	215275
#	230853
#	240554
#	258264
#
# Disc length: 3858 seconds
#
# Revision: 0
# Processed by: cddbd v1.5.2PL0 Copyright (c) Steve Scherf et al.
# Submitted via: CDex 1.50
#
DISCID=cd0f1010
DTITLE=Various Artist - Spiritual Silence
DYEAR=1900
DGENRE=New Age
TTITLE0=Elfen-Traeumerei
TTITLE1=Cerastium Caryophyllaceae, Hornkraut
TTITLE2=Kinderaugen
TTITLE3=Froehliches Spiel
TTITLE4=Elfen-Freunde
TTITLE5=Die Blume sehnt sich nach Elfen
TTITLE6=Behind all eyes
TTITLE7=Nirvana auf der Hoboe
TTITLE8=Papavers Rhoeas, Klatschmohn
TTITLE9=Agryranthemum, Gelbe Margarite
TTITLE10=Maiblumen
TTITLE11=Agaphantus Liliaceae, Blue Lady
TTITLE12=Staendchen
TTITLE13=Rhododendrum Ericaceae, Alpenrose
TTITLE14=Traeumer
TTITLE15=Rosa Valencia, Gelbe Duftrose
EXTD=
EXTT0=
EXTT1=
EXTT2=
EXTT3=
EXTT4=
EXTT5=
EXTT6=
EXTT7=
EXTT8=
EXTT9=
EXTT10=
EXTT11=
EXTT12=
EXTT13=
EXTT14=
EXTT15=
PLAYORDER=
